<svg width="109" height="28" viewBox="0 0 109 28" fill="none" xmlns="http://www.w3.org/2000/svg">
<path fill-rule="evenodd" clip-rule="evenodd" d="M26.7156 0.510741H37.6098C45.2415 0.510741 49.415 4.61575 49.415 10.5346C49.415 16.4535 45.0555 20.6492 37.3045 20.6492H32.9593V27.6038H26.7156V0.510741ZM51.7045 14C51.7045 5.62769 58.3823 0 65.8899 0C73.3976 0 80.0896 5.3747 80.0896 14C80.0896 22.6253 73.5836 28 65.8899 28C58.1962 28 51.7045 22.358 51.7045 14ZM65.8899 22.2053C61.1201 22.2053 58.1008 18.4821 58.1008 14C58.1008 9.5179 61.0867 5.78998 65.8899 5.78998C70.6931 5.78998 73.679 9.47017 73.679 14C73.679 18.5298 70.6645 22.2053 65.8899 22.2053ZM90.5545 12.4153L100.333 0.525061H107.664L96.6932 13.3652L108.093 27.5943H100.132L90.5545 15.2506V27.5943H84.3108V0.510741H90.5545V12.401V12.4153ZM6.24366 12.4153L16.036 0.510741H23.3672L12.3967 13.3508L23.7679 27.5943H15.8214L6.24366 15.2506V27.5943H0V0.510741H6.24366V12.401V12.4153ZM32.9545 6.00955V15.2697H36.6892C41.1776 15.2697 42.9997 13.4511 42.9997 10.5394C42.9997 8.21957 41.521 5.99523 37.047 5.99523L32.9545 6.00955Z" fill="#00A460"/>
</svg>
