<?xml version="1.0" encoding="utf-8"?>
<!-- Generator: Adobe Illustrator 27.0.0, SVG Export Plug-In . SVG Version: 6.00 Build 0)  -->
<svg version="1.1" id="Слой_1" xmlns="http://www.w3.org/2000/svg" xmlns:xlink="http://www.w3.org/1999/xlink" x="0px" y="0px"
	 viewBox="0 0 497 75" style="enable-background:new 0 0 497 75;" xml:space="preserve">
<style type="text/css">
	.st0{fill:#FFFFFF;}
	.st1{fill:#08B7F4;}
</style>
<path class="st0" d="M9.1,1H0v73h9.1V1z"/>
<path class="st0" d="M118.5,74h-44c-1.9,0-3.4-0.6-4.7-1.7c-1.3-1.1-1.9-2.8-1.9-5.2c0-3.2,1.2-5.7,3.6-7.6l35-26
	c2.1-1.5,3.5-3.2,4.1-4.9c0.7-1.7,1-4.2,1-7.4c0-4.2-0.6-7.3-1.8-9.3c-1.2-1.9-3.8-2.9-7.8-2.9H73.1V1h32c6.1,0,10.3,1.5,12.8,4.5
	c2.5,3,3.8,7.9,3.8,14.8c0,4.8-0.6,8.6-1.8,11.4c-1.2,2.8-3.5,5.5-7.1,8.1L80.5,64c-0.8,0.7-1.3,1.2-1.3,1.4c0,0.5,0.3,0.7,0.9,0.7
	h38.3L118.5,74L118.5,74z"/>
<path class="st0" d="M23,34.9L64,1H50.2L15.4,29.8c-4.8,4-4.8,11.4,0,15.4L50.2,74H64L23,40.1C21.4,38.7,21.4,36.3,23,34.9z"/>
<path class="st1" d="M469.7,74h-28.1c-3.3,0-5.9-0.8-7.6-2.3c-1.7-1.6-2.6-4.3-2.6-8.1V11.2c0-3.8,0.9-6.4,2.6-7.9
	c1.7-1.6,4.3-2.4,7.6-2.4h26.7c5.6,0,10.4,1,14.3,2.9c3.9,2,6.9,4.7,8.9,8.3c2,3.6,3.5,7.4,4.3,11.4c0.8,4,1.3,8.6,1.3,13.7
	c0,4-0.2,7.7-0.7,11.1c-0.4,3.3-1.3,6.7-2.5,10c-1.2,3.3-2.8,6-4.7,8.3c-2,2.2-4.6,4-7.9,5.4C477.8,73.3,474,74,469.7,74z
	 M465.3,8.8h-19.4c-1.9,0-3.2,0.4-3.9,1.2c-0.6,0.7-0.9,2-0.9,3.8v47.4c0,2,0.3,3.3,0.9,4c0.6,0.7,1.9,1,3.9,1h20
	c3.6,0,6.6-0.5,9.2-1.6c2.6-1,4.6-2.4,6.1-4.1c1.5-1.7,2.7-3.8,3.6-6.4c0.9-2.6,1.5-5.3,1.8-7.8c0.3-2.6,0.4-5.6,0.4-9.1
	c0-4.3-0.3-8-0.8-11.1c-0.6-3.1-1.6-6.1-3-8.8c-1.5-2.8-3.7-4.9-6.7-6.3C473.4,9.5,469.7,8.8,465.3,8.8z"/>
<path class="st1" d="M372.3,62.7c3.1,2.8,8.3,4.2,15.6,4.2s12.5-1.4,15.6-4.2c3.1-2.8,4.6-7.6,4.6-14.3V0.8h9.7v48.5
	c0,9.2-2.5,15.8-7.6,19.7c-5.1,3.9-12.5,5.9-22.3,5.9c-9.8,0-17.2-2-22.3-5.9c-5.1-3.9-7.6-10.5-7.6-19.7V0.8h9.7v47.6
	C367.7,55.2,369.2,59.9,372.3,62.7z"/>
<path class="st1" d="M309.9,0c13.5,0,23,2.8,28.3,8.3c5.4,5.5,8.2,15.2,8.2,29.2c0,13.9-2.7,23.7-8.2,29.2
	c-5.4,5.5-14.8,8.3-28.3,8.3c-13.5,0-22.9-2.8-28.3-8.3c-5.4-5.5-8.2-15.2-8.2-29.2c0-13.9,2.7-23.7,8.2-29.2
	C287,2.8,296.5,0,309.9,0z M289,14.3c-3.6,4.2-5.4,11.9-5.4,23.1c0,11.2,1.8,19,5.4,23.2c3.7,4.2,10.7,6.3,20.9,6.3
	c10.2,0,17.2-2.1,20.8-6.3c3.7-4.3,5.5-12,5.5-23.2c0-11.2-1.8-18.9-5.5-23.1c-3.6-4.3-10.6-6.4-20.8-6.4
	C299.7,7.9,292.7,10.1,289,14.3z"/>
<path class="st1" d="M274,74h-45.6c-6.2,0-9.3-2.9-9.3-8.8V0.8h9.7v60.9c0,1.7,0.3,2.8,0.9,3.5c0.7,0.6,1.9,0.9,3.7,0.9H274V74z"/>
<path class="st1" d="M209.6,74h-29.9c-4.7,0-8.9-0.6-12.5-1.9c-3.6-1.3-6.6-3-8.8-5.1c-2.2-2.2-4.1-4.8-5.5-7.9
	c-1.4-3.2-2.4-6.6-2.9-10c-0.5-3.5-0.7-7.4-0.7-11.7c0-5.5,0.5-10.3,1.4-14.4c0.9-4.1,2.5-7.9,4.7-11.4c2.2-3.5,5.4-6.1,9.6-7.9
	c4.2-1.8,9.3-2.7,15.4-2.7h28.3v7.9h-25.1c-9,0-15.3,2.2-18.8,6.7c-3.6,4.4-5.3,11.7-5.3,21.9s1.7,17.5,5.2,22.1
	c3.5,4.5,9.6,6.7,18.4,6.7h26.7V74z"/>
</svg>
