<svg width="650" height="224" viewBox="0 0 650 224" fill="none" xmlns="http://www.w3.org/2000/svg">
<path d="M649.481 1.74002V25.141H613.58V103.484H584.945V25.141H549.044V1.74002H649.481Z" fill="#ED0F00"/>
<path d="M510.301 103.484V1.74002H538.934V103.484H510.301Z" fill="#ED0F00"/>
<path d="M464.842 1.74002H492.023V103.484H443.911L413.244 20.199V103.484H386.063V1.74002H434.173L464.842 85.025V1.74002Z" fill="#ED0F00"/>
<path d="M317.938 47.383H371.862V95.058C355.099 101.841 338.48 105.233 322.008 105.233C302.822 105.233 287.996 100.581 277.531 91.279C267.065 81.977 261.833 69.089 261.833 52.616C261.833 36.24 266.726 23.401 276.513 14.098C286.397 4.69902 300.06 0 317.502 0C331.553 0 343.035 3.00302 351.95 9.01102C360.962 15.019 366.63 23.255 368.955 33.721L341.34 35.756C339.594 31.976 336.591 28.972 332.328 26.744C328.161 24.418 323.219 23.255 317.502 23.255C308.684 23.255 301.95 26.017 297.299 31.54C292.744 37.064 290.468 44.089 290.468 52.616C290.468 61.822 293.181 69.041 298.606 74.273C304.032 79.409 312.027 81.977 322.589 81.977C330.148 81.977 337.948 80.911 345.99 78.779V66.279H317.938V47.383Z" fill="#ED0F00"/>
<path d="M233.81 103.484L226.834 83.136H180.468L173.49 103.484H145.438L182.648 1.74002H225.526L262.881 103.484H233.81ZM187.88 61.624H219.42L203.724 15.839L187.88 61.624Z" fill="#ED0F00"/>
<path d="M87.646 1.74002H137.21L137.065 103.484H109.884V18.891L87.791 103.484H49.274L27.18 18.891V103.484H0V1.74002H49.855L68.896 85.752L87.646 1.74002Z" fill="#ED0F00"/>
<path d="M401.145 119.683H429.779V221.428H401.145V181.312H355.361V221.428H326.726V119.683H355.361V157.909H401.145V119.683Z" fill="#ED0F00"/>
<path d="M220.739 209.222C210.662 199.823 205.622 186.935 205.622 170.56C205.622 154.184 210.516 141.344 220.302 132.042C230.186 122.643 243.897 117.943 261.438 117.943C276.069 117.943 287.891 121.141 296.902 127.536C305.914 133.931 311.437 142.701 313.472 153.845L286 155.879C284.644 151.422 281.737 147.885 277.28 145.269C272.92 142.555 267.639 141.199 261.438 141.199C252.521 141.199 245.739 143.961 241.088 149.484C236.534 155.006 234.257 162.032 234.257 170.56C234.257 179.571 236.776 186.741 241.815 192.071C246.95 197.303 254.024 199.92 263.035 199.92C269.722 199.92 275.149 198.418 279.314 195.414C283.579 192.411 286.388 188.534 287.746 183.786L315.361 185.385C313.52 197.692 308.19 207.091 299.374 213.583C290.555 219.978 278.443 223.176 263.035 223.176C244.915 223.176 230.817 218.525 220.739 209.222Z" fill="#ED0F00"/>
<path d="M139.387 199.19H203.194V221.428H110.753V119.683H200.869V141.922H139.387V159.218H187.207V180.149H139.387V199.19Z" fill="#ED0F00"/>
<path d="M100.528 119.683V143.084H64.626V221.428H35.992V143.084H0.0911255V119.683H100.528Z" fill="#ED0F00"/>
</svg>
